<?xml version="1.0" standalone="no"?>
<!DOCTYPE svg PUBLIC "-//W3C//DTD SVG 20010904//EN"
 "http://www.w3.org/TR/2001/REC-SVG-20010904/DTD/svg10.dtd">
<svg version="1.0" xmlns="http://www.w3.org/2000/svg"
 width="300.000000pt" height="300.000000pt" viewBox="0 0 300.000000 300.000000"
 preserveAspectRatio="xMidYMid meet">

<g transform="translate(0.000000,300.000000) scale(0.100000,-0.100000)"
fill="#000000" stroke="none">
<path d="M790 2991 c0 -5 -9 -11 -20 -14 -11 -3 -20 -12 -20 -21 0 -9 -7 -16
-15 -16 -9 0 -12 -6 -9 -15 4 -10 0 -15 -15 -15 -14 0 -21 -6 -21 -20 0 -11
-7 -20 -15 -20 -9 0 -15 -9 -15 -25 0 -14 -7 -28 -15 -31 -10 -4 -15 -20 -15
-50 0 -32 -4 -44 -15 -44 -11 0 -15 -12 -15 -51 0 -42 -3 -52 -20 -56 -18 -5
-20 -14 -20 -79 0 -59 -3 -74 -15 -74 -12 0 -15 -14 -15 -65 0 -50 -3 -65 -15
-65 -11 0 -15 -20 -17 -97 -2 -79 -6 -98 -18 -98 -13 0 -15 -31 -18 -212 -2
-180 -5 -213 -17 -213 -8 0 -15 -7 -15 -15 0 -10 -10 -15 -30 -15 -20 0 -30 5
-30 15 0 12 -14 15 -65 15 -51 0 -65 3 -65 15 0 11 -12 15 -50 15 -43 0 -50 3
-50 20 0 18 -7 20 -70 20 l-70 0 0 -175 c0 -122 4 -182 13 -197 21 -38 40 -57
49 -51 5 3 12 -4 15 -16 3 -12 12 -21 20 -21 9 0 13 -6 9 -15 -4 -10 1 -15 14
-15 11 0 20 -7 20 -15 0 -8 9 -15 20 -15 13 0 20 -7 20 -19 0 -10 7 -22 16
-25 8 -3 12 -10 9 -16 -3 -5 3 -10 14 -10 17 0 21 -6 21 -35 0 -23 5 -35 14
-35 7 0 22 -11 32 -25 10 -14 24 -25 31 -25 7 0 13 -7 13 -16 0 -9 9 -18 20
-21 15 -4 20 -14 20 -39 0 -24 5 -34 15 -34 10 0 15 -10 15 -30 0 -20 5 -30
15 -30 8 0 15 -7 15 -15 0 -9 7 -18 15 -21 9 -4 15 -19 15 -35 0 -22 5 -29 20
-29 17 0 20 -7 20 -50 0 -38 4 -50 15 -50 11 0 15 -12 15 -48 0 -46 -1 -47
-32 -47 -17 0 -33 -6 -35 -12 -7 -20 93 -17 101 3 9 23 90 16 94 -8 2 -11 -3
-18 -12 -18 -9 0 -16 -8 -16 -20 0 -16 -7 -20 -35 -20 -19 0 -35 -4 -35 -10 0
-5 -13 -10 -30 -10 -20 0 -30 -5 -30 -15 0 -10 -10 -15 -29 -15 -20 0 -30 -6
-34 -20 -4 -15 -14 -20 -36 -20 -21 0 -31 -5 -31 -15 0 -10 -10 -15 -30 -15
-20 0 -30 -5 -30 -15 0 -8 -6 -15 -14 -15 -7 0 -16 -9 -19 -20 -3 -14 -14 -20
-31 -20 -33 0 -66 -32 -66 -64 0 -15 -7 -26 -20 -29 -17 -4 -20 -14 -20 -66 0
-54 2 -61 20 -61 18 0 20 -7 20 -60 l0 -60 95 0 95 0 0 45 c0 33 4 45 15 45
10 0 15 10 15 30 0 20 5 30 15 30 8 0 15 7 15 15 0 10 11 15 35 15 l35 0 0
-80 c0 -73 -2 -80 -20 -80 -11 0 -20 -4 -20 -10 0 -7 373 -10 1100 -10 l1100
0 0 150 c0 83 0 153 0 158 0 4 -14 6 -30 4 -21 -1 -30 2 -30 13 0 8 -7 15 -15
15 -8 0 -15 9 -15 20 0 16 -7 20 -30 20 -20 0 -30 5 -30 15 0 8 -9 15 -20 15
-11 0 -20 7 -20 15 0 11 -12 15 -45 15 -38 0 -45 3 -45 20 0 13 -7 20 -20 20
-12 0 -20 7 -20 16 0 12 -7 15 -25 12 -15 -3 -29 0 -33 8 -5 8 -34 13 -87 15
l-80 2 -3 -41 c-5 -71 -22 -46 -22 33 0 68 -2 75 -20 75 -16 0 -20 7 -20 34 0
25 5 35 20 39 15 4 20 14 20 36 0 28 3 31 30 31 25 0 30 4 30 25 0 15 -6 25
-14 25 -15 0 -28 24 -19 34 4 3 15 6 25 6 14 0 18 8 18 36 0 31 -3 35 -22 32
-18 -2 -24 -11 -26 -35 -2 -21 -9 -33 -18 -33 -9 0 -14 -11 -14 -30 0 -20 -5
-30 -15 -30 -10 0 -15 -11 -15 -35 0 -19 -4 -35 -10 -35 -23 0 -50 -36 -50
-67 0 -24 -4 -31 -14 -27 -11 4 -16 -4 -18 -33 -2 -24 -8 -37 -15 -35 -9 1
-13 -12 -13 -43 0 -38 -3 -45 -20 -45 -13 0 -20 -7 -20 -20 0 -11 -5 -20 -10
-20 -13 0 -50 -37 -50 -50 0 -6 -72 -10 -195 -10 -167 0 -195 2 -195 15 0 11
-12 15 -50 15 -38 0 -50 4 -50 15 0 10 -11 15 -35 15 -28 0 -35 4 -35 20 0 11
-7 20 -15 20 -8 0 -15 5 -15 10 0 13 -32 45 -53 53 -9 3 -17 11 -17 17 0 6 -5
8 -10 5 -6 -4 -10 5 -10 19 0 14 -4 26 -10 26 -13 0 -50 37 -50 50 0 6 -9 10
-20 10 -13 0 -20 7 -20 20 0 11 -6 20 -14 20 -8 0 -17 7 -20 16 -3 8 -10 12
-16 9 -5 -3 -10 3 -10 14 0 12 -7 21 -15 21 -8 0 -15 7 -15 15 0 8 -7 15 -15
15 -14 0 -55 34 -55 45 0 11 -41 45 -55 45 -8 0 -15 9 -15 20 0 11 -7 20 -15
20 -8 0 -15 7 -15 15 0 8 -7 15 -15 15 -8 0 -15 7 -15 15 0 8 -7 15 -15 15 -8
0 -15 9 -15 20 0 13 -7 20 -20 20 -16 0 -20 7 -20 35 0 24 -5 35 -15 35 -8 0
-15 5 -15 10 0 6 -7 10 -15 10 -12 0 -15 19 -15 115 0 96 3 115 15 115 11 0
15 12 15 50 0 37 4 50 14 50 9 0 16 12 18 28 2 16 9 27 18 27 11 0 16 14 18
53 2 38 7 52 18 52 32 0 10 35 -24 38 -27 3 -32 0 -32 -17 0 -18 -6 -21 -45
-21 -44 0 -45 1 -45 31 0 22 -5 32 -20 36 -17 5 -20 14 -20 69 0 50 -3 64 -15
64 -13 0 -15 24 -15 160 0 136 2 160 15 160 10 0 15 10 15 30 0 23 4 30 20 30
13 0 20 7 20 20 0 19 5 21 78 18 l77 -3 3 -32 c2 -21 9 -33 18 -33 12 0 14
-28 14 -165 0 -140 2 -165 15 -165 10 0 15 -10 15 -30 0 -23 5 -30 19 -30 10
0 22 10 26 23 l8 22 4 -22 c4 -19 11 -23 44 -23 l39 0 0 64 c0 48 4 65 15 70
10 3 15 19 15 45 0 25 5 41 15 45 8 3 15 13 15 22 0 26 25 10 28 -19 2 -19 9
-27 23 -27 10 0 19 5 19 10 0 6 7 10 15 10 10 0 15 11 15 35 0 24 5 35 15 35
8 0 15 7 15 15 0 8 5 15 10 15 6 0 10 16 10 35 0 27 4 35 18 35 17 0 52 32 52
48 1 14 50 53 60 47 5 -3 10 1 10 9 0 13 14 16 80 16 73 0 80 2 80 20 0 16 7
20 30 20 20 0 30 5 30 15 0 11 12 15 50 15 36 0 52 4 56 15 11 27 34 17 34
-15 0 -23 -4 -30 -20 -30 -11 0 -20 -7 -20 -15 0 -8 -7 -15 -15 -15 -8 0 -15
-7 -15 -15 0 -10 -11 -15 -35 -15 -24 0 -35 -5 -35 -15 0 -12 19 -15 109 -15
112 0 142 -10 108 -35 -26 -19 -20 -35 13 -35 20 0 30 -5 30 -15 0 -13 21 -15
130 -15 109 0 130 2 130 15 0 10 11 15 35 15 24 0 35 5 35 15 0 8 8 15 18 15
12 0 18 -9 19 -30 2 -26 -1 -30 -22 -30 -18 0 -25 -5 -25 -20 0 -12 -7 -20
-16 -20 -9 0 -14 -6 -12 -12 3 -9 33 -14 91 -16 73 -2 87 0 87 13 0 11 11 15
41 15 32 0 42 4 46 20 4 15 14 20 39 20 24 0 34 5 34 15 0 9 9 15 25 15 22 0
25 -4 25 -35 0 -28 4 -35 20 -35 19 0 20 -7 20 -175 l0 -175 -29 0 c-16 0 -31
6 -35 15 -8 22 -236 22 -236 1 0 -9 -12 -16 -27 -18 -16 -2 -27 -7 -25 -13 2
-5 -7 -13 -20 -16 -18 -4 -22 -11 -20 -32 2 -18 -2 -27 -12 -27 -8 0 -16 -10
-18 -22 -2 -13 -10 -23 -18 -23 -9 0 -16 -11 -18 -27 -2 -21 1 -28 13 -28 9 0
19 -9 22 -20 4 -16 14 -20 49 -20 32 0 44 4 44 15 0 10 -10 15 -30 15 -24 0
-30 4 -30 21 0 18 5 20 48 17 45 -3 47 -5 50 -34 3 -28 8 -33 38 -38 19 -4 34
-11 34 -16 0 -6 20 -10 45 -10 l45 0 0 -95 c0 -74 -3 -95 -14 -95 -8 0 -17
-15 -20 -35 -4 -21 -13 -35 -21 -35 -8 0 -15 -7 -15 -15 0 -8 -7 -15 -16 -15
-10 0 -14 -6 -10 -15 3 -9 -3 -19 -14 -25 -11 -6 -19 -14 -19 -18 3 -20 -3
-30 -21 -35 -14 -4 -20 -14 -20 -35 0 -17 -6 -32 -15 -36 -8 -3 -15 -12 -15
-20 0 -7 -7 -17 -16 -20 -21 -8 -14 -50 9 -54 13 -3 17 3 17 27 0 21 5 31 15
31 8 0 15 9 15 19 0 12 7 18 18 17 13 -1 18 8 20 37 2 24 8 37 18 37 8 0 14
10 14 25 0 14 5 25 10 25 6 0 10 9 10 20 0 11 7 20 15 20 8 0 15 7 15 15 0 8
9 15 20 15 16 0 20 7 20 35 0 24 5 35 15 35 13 0 15 21 15 125 0 102 3 127 15
131 8 4 15 12 15 20 0 8 6 14 14 14 8 0 16 6 18 12 3 7 13 13 24 13 13 0 18 6
16 18 -2 9 4 20 13 23 12 5 15 24 15 94 0 76 2 89 17 92 14 3 17 12 14 51 -2
37 1 47 13 47 9 0 16 -7 16 -16 0 -11 8 -14 33 -12 28 3 32 7 35 36 2 20 9 32
18 32 8 0 14 5 14 10 0 6 16 10 35 10 l35 0 0 150 c0 124 -2 150 -14 150 -11
0 -16 14 -18 48 -2 34 -7 47 -18 47 -12 0 -16 15 -18 68 -2 51 -6 67 -17 67
-9 0 -15 10 -15 25 0 14 -7 28 -15 31 -9 4 -15 19 -15 35 0 22 -5 29 -20 29
-13 0 -20 7 -20 20 0 16 7 20 35 20 32 0 35 2 35 30 0 18 -6 33 -15 36 -8 4
-15 12 -15 20 0 8 -9 14 -20 14 -11 0 -20 7 -20 15 0 8 -7 15 -15 15 -8 0 -15
7 -15 15 0 9 -9 15 -25 15 -13 0 -28 7 -32 15 -5 8 -21 16 -36 17 -15 1 -27 8
-27 15 0 7 -7 13 -15 13 -8 0 -15 7 -15 16 0 9 -9 18 -20 21 -11 3 -20 12 -20
19 0 8 -9 14 -20 14 -13 0 -20 7 -20 20 0 11 -7 20 -15 20 -8 0 -15 5 -15 10
0 7 -260 10 -760 10 -433 0 -760 -4 -760 -9z m1588 -2888 c-3 -49 -25 -71 -35
-34 -3 12 -12 21 -19 21 -9 0 -14 11 -14 30 0 28 3 30 36 30 l35 0 -3 -47z"/>
<path d="M630 2050 c0 -38 -4 -50 -15 -50 -12 0 -15 -16 -15 -85 0 -69 3 -85
15 -85 12 0 15 -14 15 -66 0 -48 3 -65 13 -61 9 3 11 34 10 120 -3 111 -2 117
17 117 18 0 20 7 20 80 l0 80 -30 0 c-29 0 -30 -1 -30 -50z"/>
<path d="M1340 1950 c0 -5 -16 -10 -35 -10 -28 0 -35 -4 -35 -20 0 -11 -7 -20
-15 -20 -10 0 -15 -11 -15 -35 0 -24 -5 -35 -15 -35 -9 0 -15 -9 -15 -24 0
-21 6 -25 33 -28 19 -2 31 -8 29 -16 -1 -7 5 -15 15 -19 9 -4 25 -15 35 -25
25 -25 58 -24 58 2 0 19 5 21 63 18 61 -3 62 -3 59 -30 -3 -20 1 -28 12 -28 9
0 16 -7 16 -15 0 -8 9 -15 20 -15 11 0 20 -7 20 -15 0 -11 12 -15 50 -15 43 0
50 -3 50 -20 0 -11 7 -20 15 -20 8 0 15 -7 15 -15 0 -10 10 -15 30 -15 20 0
30 5 30 15 0 10 11 15 35 15 28 0 35 4 35 20 0 11 7 20 15 20 8 0 15 7 15 15
0 8 7 15 15 15 8 0 15 6 15 14 0 7 9 16 20 19 13 3 20 14 20 30 0 14 6 27 13
30 7 2 13 16 15 31 2 25 0 26 -48 26 -38 0 -50 4 -50 15 0 11 -12 15 -50 15
-41 0 -50 3 -50 18 0 24 -35 52 -65 52 -18 0 -25 5 -25 20 0 16 -7 20 -35 20
-19 0 -35 5 -35 10 0 6 -50 10 -130 10 -80 0 -130 -4 -130 -10z"/>
<path d="M0 1257 c0 -20 5 -37 10 -37 6 0 10 -7 10 -15 0 -8 5 -15 10 -15 6 0
10 -7 10 -15 0 -8 9 -15 20 -15 13 0 20 -7 20 -20 0 -11 7 -20 15 -20 8 0 15
-7 15 -15 0 -8 7 -15 15 -15 8 0 15 -4 15 -10 0 -5 9 -10 20 -10 13 0 20 -7
20 -20 0 -11 7 -20 15 -20 10 0 15 -11 15 -35 0 -24 5 -35 15 -35 8 0 15 -7
15 -15 0 -8 9 -15 20 -15 16 0 20 -7 20 -35 0 -24 5 -35 15 -35 8 0 15 -7 15
-15 0 -8 5 -15 10 -15 16 0 12 57 -5 64 -9 3 -15 18 -15 36 0 20 -5 30 -15 30
-8 0 -15 7 -15 15 0 8 -6 15 -14 15 -10 0 -16 13 -18 38 -2 23 -8 36 -16 34
-7 -1 -15 5 -18 13 -4 8 -12 15 -20 15 -8 0 -14 7 -14 15 0 8 -7 15 -15 15 -8
0 -15 9 -15 20 0 13 -7 20 -20 20 -11 0 -20 7 -20 15 0 8 -7 15 -15 15 -8 0
-15 7 -15 15 0 8 -7 15 -15 15 -8 0 -15 7 -15 15 0 9 -9 25 -20 37 l-20 22 0
-37z"/>
<path d="M2090 1095 c0 -14 5 -25 10 -25 6 0 10 11 10 25 0 14 -4 25 -10 25
-5 0 -10 -11 -10 -25z"/>
<path d="M2310 1105 c0 -8 7 -15 15 -15 8 0 15 7 15 15 0 8 -7 15 -15 15 -8 0
-15 -7 -15 -15z"/>
<path d="M0 1060 c0 -16 5 -30 10 -30 6 0 10 -16 10 -35 0 -19 5 -35 10 -35 6
0 10 -7 10 -15 0 -8 9 -15 20 -15 16 0 20 -7 20 -35 0 -24 5 -35 15 -35 10 0
15 -10 15 -30 0 -20 5 -30 15 -30 8 0 15 -7 15 -15 0 -8 9 -15 20 -15 16 0 20
-7 20 -35 0 -23 4 -34 13 -32 7 1 13 -11 15 -30 2 -21 9 -33 18 -33 9 0 14
-10 14 -29 0 -20 6 -30 20 -34 16 -4 20 -14 20 -51 0 -39 -3 -46 -20 -46 -11
0 -20 -7 -20 -15 0 -10 10 -15 30 -15 20 0 30 5 30 15 0 8 7 15 15 15 8 0 15
7 15 15 0 8 -4 15 -9 15 -6 0 -11 21 -13 48 -2 31 -7 46 -15 44 -9 -1 -13 10
-13 32 0 44 -9 66 -26 66 -8 0 -14 9 -14 20 0 13 -7 20 -20 20 -16 0 -19 5
-16 25 3 15 -1 28 -10 33 -13 7 -20 24 -23 55 -1 4 -8 7 -16 7 -8 0 -15 9 -15
20 0 13 -7 20 -19 20 -15 0 -19 5 -15 25 3 17 -2 27 -16 35 -11 6 -18 16 -14
21 3 6 -3 13 -15 16 -15 4 -21 13 -21 35 0 26 -19 58 -34 58 -3 0 -6 -13 -6
-30z"/>
<path d="M1740 1080 c0 -6 27 -10 60 -10 33 0 60 4 60 10 0 6 -27 10 -60 10
-33 0 -60 -4 -60 -10z"/>
<path d="M2350 1080 c0 -5 7 -10 15 -10 8 0 15 5 15 10 0 6 -7 10 -15 10 -8 0
-15 -4 -15 -10z"/>
<path d="M1867 1063 c-4 -3 -7 -12 -7 -20 0 -16 56 -18 66 -2 12 20 -42 40
-59 22z"/>
<path d="M2025 1060 c-10 -16 4 -30 29 -30 29 0 39 10 25 27 -13 15 -45 17
-54 3z"/>
<path d="M2387 1053 c-4 -3 -7 -17 -7 -31 0 -20 4 -24 23 -20 20 4 23 1 19
-19 -3 -18 -1 -22 12 -17 10 4 16 1 16 -9 0 -18 32 -24 85 -16 39 5 39 6 12
13 -15 5 -39 6 -52 4 -19 -4 -25 -1 -25 13 0 11 -7 19 -15 19 -8 0 -15 9 -15
21 0 12 -4 17 -11 14 -6 -4 -13 2 -16 14 -5 21 -14 26 -26 14z"/>
<path d="M1380 1015 c0 -8 7 -15 15 -15 8 0 15 -9 15 -20 0 -11 7 -20 15 -20
8 0 15 -7 15 -15 0 -8 7 -15 15 -15 8 0 15 -7 15 -15 0 -8 7 -15 15 -15 8 0
15 -9 15 -20 0 -16 7 -20 34 -20 21 0 36 -6 40 -15 3 -8 17 -15 31 -15 16 0
25 6 25 15 0 10 -10 15 -30 15 -23 0 -30 4 -30 20 0 13 -7 20 -20 20 -11 0
-20 7 -20 15 0 8 -7 15 -15 15 -8 0 -15 7 -15 15 0 8 7 15 15 15 8 0 15 -7 15
-15 0 -10 11 -15 35 -15 24 0 35 -5 35 -15 0 -12 14 -15 65 -15 51 0 65 3 65
15 0 12 -14 15 -65 15 -51 0 -65 3 -65 15 0 10 -11 15 -35 15 -24 0 -35 5 -35
15 0 9 -10 15 -26 15 -17 0 -28 6 -31 20 -4 16 -14 20 -49 20 -32 0 -44 -4
-44 -15z"/>
<path d="M1930 1015 c0 -11 12 -15 45 -15 33 0 45 4 45 15 0 11 -12 15 -45 15
-33 0 -45 -4 -45 -15z"/>
<path d="M2583 915 c0 -8 4 -15 9 -15 4 0 8 7 8 15 0 8 -4 15 -8 15 -5 0 -9
-7 -9 -15z"/>
<path d="M1740 880 c0 -19 6 -20 95 -20 62 0 95 -4 95 -11 0 -6 -9 -13 -20
-16 -11 -3 -20 -12 -20 -19 0 -11 -18 -14 -75 -14 -60 0 -75 -3 -75 -15 0 -12
17 -15 95 -15 78 0 95 3 95 15 0 8 7 15 15 15 8 0 15 7 15 15 0 8 7 15 15 15
8 0 15 7 15 15 0 8 7 15 15 15 8 0 15 8 15 18 0 17 -11 19 -140 21 -135 2
-140 1 -140 -19z"/>
<path d="M2610 880 c0 -5 5 -10 10 -10 6 0 10 5 10 10 0 6 -4 10 -10 10 -5 0
-10 -4 -10 -10z"/>
<path d="M2640 850 c0 -5 5 -10 10 -10 6 0 10 5 10 10 0 6 -4 10 -10 10 -5 0
-10 -4 -10 -10z"/>
<path d="M340 800 c0 -20 5 -30 15 -30 10 0 15 10 15 30 0 20 -5 30 -15 30
-10 0 -15 -10 -15 -30z"/>
<path d="M1640 815 c0 -11 12 -15 45 -15 33 0 45 4 45 15 0 11 -12 15 -45 15
-33 0 -45 -4 -45 -15z"/>
<path d="M2670 815 c0 -8 7 -15 15 -15 8 0 15 7 15 15 0 8 -7 15 -15 15 -8 0
-15 -7 -15 -15z"/>
<path d="M2710 780 c0 -5 5 -10 10 -10 6 0 10 5 10 10 0 6 -4 10 -10 10 -5 0
-10 -4 -10 -10z"/>
<path d="M376 763 c-3 -3 -6 -26 -6 -50 0 -32 4 -43 15 -43 12 0 15 -14 15
-64 0 -63 0 -64 30 -68 26 -4 30 -1 30 19 0 13 -4 23 -10 23 -5 0 -10 21 -10
46 0 37 -4 47 -20 51 -16 4 -20 14 -20 44 0 37 -10 55 -24 42z"/>
<path d="M2740 750 c0 -5 4 -10 9 -10 6 0 13 5 16 10 3 6 -1 10 -9 10 -9 0
-16 -4 -16 -10z"/>
<path d="M2160 690 c0 -27 5 -50 10 -50 6 0 10 23 10 50 0 28 -4 50 -10 50 -5
0 -10 -22 -10 -50z"/>
<path d="M2780 720 c0 -5 5 -10 10 -10 6 0 10 5 10 10 0 6 -4 10 -10 10 -5 0
-10 -4 -10 -10z"/>
<path d="M2810 690 c0 -5 5 -10 11 -10 5 0 7 5 4 10 -3 6 -8 10 -11 10 -2 0
-4 -4 -4 -10z"/>
<path d="M2841 625 c3 -57 23 -54 27 3 2 33 -1 42 -13 42 -13 0 -15 -10 -14
-45z"/>
<path d="M2190 610 c0 -18 5 -30 13 -30 9 0 12 10 9 30 -2 17 -8 30 -13 30 -5
0 -9 -13 -9 -30z"/>
<path d="M2881 533 c0 -24 4 -43 9 -43 6 0 10 -9 10 -20 0 -11 5 -20 10 -20 6
0 10 13 10 30 0 18 -5 29 -12 28 -7 -2 -15 12 -19 32 l-6 35 -2 -42z"/>
<path d="M337 534 c-15 -16 -5 -24 29 -24 24 0 34 4 32 13 -5 13 -50 22 -61
11z"/>
<path d="M180 425 c0 -10 10 -15 30 -15 20 0 30 5 30 15 0 10 -10 15 -30 15
-20 0 -30 -5 -30 -15z"/>
<path d="M2930 415 c0 -14 7 -28 15 -31 8 -4 15 -12 15 -20 0 -8 8 -14 18 -14
15 0 18 6 14 30 -3 23 -7 28 -17 20 -14 -12 -25 -3 -25 22 0 10 -4 18 -10 18
-5 0 -10 -11 -10 -25z"/>
<path d="M110 395 c0 -10 10 -15 30 -15 20 0 30 5 30 15 0 10 -10 15 -30 15
-20 0 -30 -5 -30 -15z"/>
<path d="M80 365 c0 -8 5 -15 10 -15 6 0 10 7 10 15 0 8 -4 15 -10 15 -5 0
-10 -7 -10 -15z"/>
<path d="M46 343 c-3 -4 -6 -79 -6 -169 0 -159 0 -162 22 -168 45 -12 48 -9
48 54 0 47 -3 60 -15 60 -12 0 -15 19 -15 109 0 84 -3 110 -14 114 -8 3 -17 3
-20 0z"/>
</g>
</svg>
